<svg width="1540" height="968" viewBox="0 0 1540 968" fill="none" xmlns="http://www.w3.org/2000/svg">
<g clip-path="url(#clip0_2_4068)">
<rect width="1540" height="968" fill="#010101"/>
<g filter="url(#filter0_f_2_4068)">
<path d="M1002.35 759.926C1166.01 761.441 1266.8 745.667 1325.97 726.048C1381.92 707.5 1431.27 657.545 1483.45 630.121L1549.74 595.273C1616.59 560.133 1698.83 595.573 1719.19 668.302C1726.08 692.892 1725.25 719.097 1714.06 742.052C1631.83 910.773 1371.25 1228.14 851.844 1390.62C292.822 1565.49 93.3418 1363.15 63.4797 1240.11C51.5347 1120.66 46.9956 857.397 124.399 759.926C176.265 694.613 259.991 672.85 328.997 669.193C386.099 666.168 441.172 685.416 496.474 699.957C599.363 727.009 774.114 757.813 1002.35 759.926Z" fill="#612B10"/>
</g>
<g filter="url(#filter1_f_2_4068)">
<path d="M1024.34 942.935C1188 944.45 1288.78 928.676 1347.96 909.057C1403.9 890.509 1453.26 840.554 1505.43 813.13L1571.73 778.282C1638.58 743.142 1720.81 778.582 1741.18 851.31C1748.06 875.901 1747.23 902.106 1736.04 925.061C1653.81 1093.78 1393.23 1411.15 873.829 1573.63C314.806 1748.5 115.326 1546.15 85.4643 1423.12C73.5193 1303.67 68.9802 1040.41 146.383 942.935C198.25 877.621 281.975 855.859 350.982 852.202C408.084 849.176 463.156 868.425 518.459 882.966C621.348 910.018 796.099 940.822 1024.34 942.935Z" fill="#E48F4C"/>
</g>
<g filter="url(#filter2_f_2_4068)">
<path d="M1010.57 1073.97C1153.59 1075.3 1241.66 1061.51 1293.37 1044.37C1342.26 1028.16 1385.39 984.506 1430.98 960.542L1488.91 930.09C1547.33 899.383 1619.19 930.352 1636.98 993.906C1643 1015.39 1642.27 1038.29 1632.5 1058.35C1560.64 1205.79 1332.93 1483.12 879.053 1625.1C390.553 1777.91 216.238 1601.09 190.143 1493.58C179.705 1389.2 175.738 1159.15 243.377 1073.97C286.017 1020.28 353.3 1000.27 411.33 995.423C468.314 990.669 523.582 1010.3 579.032 1024.27C670.093 1047.22 818.705 1072.2 1010.57 1073.97Z" fill="#F3C78B"/>
</g>
<path d="M174.111 1537.23C175.17 1538.57 177.642 1541.17 181.287 1544.76M396.216 1698.95C467.318 1697.4 864.471 1675.74 892.758 1653.23L396.216 1698.95ZM396.216 1698.95L251.33 1417.01L108.482 1261.33L181.287 1544.76M396.216 1698.95C353 1699.9 215.489 1578.46 181.287 1544.76" stroke="url(#paint0_linear_2_4068)" stroke-width="66.3683" stroke-linecap="round"/>
<g filter="url(#filter4_f_2_4068)">
<path d="M892.726 1155.12C966.247 1155.8 1021.55 1151.47 1062.6 1144.64C1138.27 1132.06 1210.54 1074.14 1278.69 1038.93L1544.91 901.403C1577.51 884.558 1616.38 908.227 1616.38 944.927C1616.38 950.939 1615.44 956.738 1612.85 962.165C1556.05 1081.35 1168.04 1475.42 787.913 1594.33C398.609 1716.11 259.691 1575.2 238.895 1489.52C230.577 1406.33 227.416 1222.99 281.32 1155.12C311.122 1117.59 356.03 1100.71 397.821 1094.52C454.386 1086.14 510.141 1106.7 565.843 1119.63C639.274 1136.67 751.243 1153.81 892.726 1155.12Z" fill="white"/>
</g>
<path d="M769.76 906.806V902.618" stroke="white" stroke-width="0.818182"/>
</g>
<defs>
<filter id="filter0_f_2_4068" x="-109.195" y="415.666" width="1998.7" height="1209.07" filterUnits="userSpaceOnUse" color-interpolation-filters="sRGB">
<feFlood flood-opacity="0" result="BackgroundImageFix"/>
<feBlend mode="normal" in="SourceGraphic" in2="BackgroundImageFix" result="shape"/>
<feGaussianBlur stdDeviation="82.9604" result="effect1_foregroundBlur_2_4068"/>
</filter>
<filter id="filter1_f_2_4068" x="-87.2106" y="598.674" width="1998.7" height="1209.07" filterUnits="userSpaceOnUse" color-interpolation-filters="sRGB">
<feFlood flood-opacity="0" result="BackgroundImageFix"/>
<feBlend mode="normal" in="SourceGraphic" in2="BackgroundImageFix" result="shape"/>
<feGaussianBlur stdDeviation="82.9604" result="effect1_foregroundBlur_2_4068"/>
</filter>
<filter id="filter2_f_2_4068" x="18.32" y="752.209" width="1788.43" height="1098.4" filterUnits="userSpaceOnUse" color-interpolation-filters="sRGB">
<feFlood flood-opacity="0" result="BackgroundImageFix"/>
<feBlend mode="normal" in="SourceGraphic" in2="BackgroundImageFix" result="shape"/>
<feGaussianBlur stdDeviation="82.9604" result="effect1_foregroundBlur_2_4068"/>
</filter>
<filter id="filter4_f_2_4068" x="68.2711" y="729.952" width="1714.03" height="1077.79" filterUnits="userSpaceOnUse" color-interpolation-filters="sRGB">
<feFlood flood-opacity="0" result="BackgroundImageFix"/>
<feBlend mode="normal" in="SourceGraphic" in2="BackgroundImageFix" result="shape"/>
<feGaussianBlur stdDeviation="82.9604" result="effect1_foregroundBlur_2_4068"/>
</filter>
<linearGradient id="paint0_linear_2_4068" x1="274.884" y1="1664.57" x2="509.191" y2="1733.09" gradientUnits="userSpaceOnUse">
<stop stop-color="#0082FF"/>
<stop offset="1" stop-color="#0076BF"/>
</linearGradient>
<clipPath id="clip0_2_4068">
<rect width="1540" height="968" fill="white"/>
</clipPath>
</defs>
</svg>
