<svg width="1540" height="968" viewBox="0 0 1540 968" fill="none" xmlns="http://www.w3.org/2000/svg">
<g clip-path="url(#clip0_2_4183)">
<rect width="1540" height="968" fill="#010101"/>
<g filter="url(#filter0_f_2_4183)">
<path d="M1002.35 339.926C1166.01 341.441 1266.8 325.667 1325.97 306.048C1381.92 287.5 1431.27 237.545 1483.45 210.121L1549.74 175.273C1616.59 140.133 1698.83 175.573 1719.19 248.302C1726.08 272.892 1725.25 299.097 1714.06 322.052C1631.83 490.773 1371.25 808.138 851.844 970.618C292.822 1145.49 93.3418 943.145 63.4797 820.112C51.5347 700.663 46.9956 437.397 124.399 339.926C176.265 274.613 259.991 252.85 328.997 249.193C386.099 246.168 441.172 265.416 496.474 279.957C599.363 307.009 774.114 337.813 1002.35 339.926Z" fill="#612B10"/>
</g>
<g filter="url(#filter1_f_2_4183)">
<path d="M1024.34 522.935C1188 524.45 1288.78 508.676 1347.96 489.057C1403.9 470.509 1453.26 420.554 1505.43 393.13L1571.73 358.282C1638.58 323.142 1720.81 358.582 1741.18 431.31C1748.06 455.901 1747.23 482.106 1736.04 505.061C1653.81 673.782 1393.23 991.147 873.829 1153.63C314.806 1328.5 115.326 1126.15 85.4643 1003.12C73.5193 883.672 68.9802 620.405 146.383 522.935C198.25 457.621 281.975 435.859 350.982 432.202C408.084 429.176 463.156 448.425 518.459 462.966C621.348 490.018 796.099 520.822 1024.34 522.935Z" fill="#E48F4C"/>
</g>
<g filter="url(#filter2_f_2_4183)">
<path d="M1010.57 653.972C1153.59 655.296 1241.66 641.512 1293.37 624.368C1342.26 608.159 1385.39 564.506 1430.98 540.542L1488.91 510.09C1547.33 479.383 1619.19 510.352 1636.98 573.906C1643 595.394 1642.27 618.293 1632.5 638.352C1560.64 785.789 1332.93 1063.12 879.053 1205.1C390.553 1357.91 216.238 1181.09 190.143 1073.58C179.705 969.201 175.738 739.146 243.377 653.972C286.017 600.276 353.3 580.265 411.33 575.423C468.314 570.669 523.582 590.304 579.032 604.274C670.093 627.216 818.705 652.195 1010.57 653.972Z" fill="#F3C78B"/>
</g>
<g filter="url(#filter3_f_2_4183)">
<path d="M174.111 1117.23C175.17 1118.57 177.642 1121.17 181.287 1124.76M396.216 1278.95C467.318 1277.4 864.471 1255.74 892.758 1233.23L396.216 1278.95ZM396.216 1278.95L251.33 997.015L108.482 841.327L181.287 1124.76M396.216 1278.95C353 1279.9 215.489 1158.46 181.287 1124.76" stroke="url(#paint0_linear_2_4183)" stroke-width="66.3683" stroke-linecap="round"/>
</g>
<g filter="url(#filter4_f_2_4183)">
<path d="M892.726 735.116C966.247 735.797 1021.55 731.468 1062.6 724.642C1138.27 712.059 1210.54 654.141 1278.69 618.933L1544.91 481.403C1577.51 464.558 1616.38 488.227 1616.38 524.927C1616.38 530.939 1615.44 536.738 1612.85 542.165C1556.05 661.348 1168.04 1055.42 787.913 1174.33C398.609 1296.11 259.691 1155.2 238.895 1069.52C230.577 986.334 227.416 802.995 281.32 735.116C311.122 697.587 356.03 680.705 397.821 674.518C454.386 666.143 510.141 686.703 565.843 699.627C639.274 716.665 751.243 733.806 892.726 735.116Z" fill="white"/>
</g>
<rect x="761.409" y="866.499" width="17.1818" height="27.002" rx="8.59091" stroke="white" stroke-width="0.818182"/>
<path d="M769.76 876.806V872.618" stroke="white" stroke-width="0.818182"/>
<path d="M731.261 923.211C728.414 923.211 726.533 921.857 726.375 919.625L726.366 919.493H728.282L728.299 919.607C728.475 920.776 729.644 921.506 731.34 921.506C733.037 921.506 734.109 920.741 734.109 919.555V919.546C734.109 918.526 733.415 917.973 731.736 917.604L730.356 917.313C727.869 916.786 726.665 915.644 726.665 913.763V913.754C726.673 911.592 728.581 910.106 731.261 910.106C733.907 910.106 735.717 911.548 735.849 913.675L735.858 913.824H733.942L733.933 913.701C733.757 912.523 732.738 911.812 731.235 911.812C729.662 911.82 728.66 912.567 728.66 913.675V913.684C728.66 914.633 729.38 915.213 730.963 915.556L732.351 915.846C734.97 916.399 736.095 917.463 736.095 919.423V919.432C736.095 921.743 734.267 923.211 731.261 923.211ZM741.435 923.185C738.737 923.185 737.049 921.33 737.049 918.368V918.359C737.049 915.433 738.772 913.578 741.408 913.578C743.79 913.578 745.232 915.107 745.39 916.848L745.399 916.909H743.588L743.571 916.839C743.368 915.934 742.665 915.169 741.426 915.169C739.949 915.169 738.991 916.399 738.991 918.377V918.386C738.991 920.407 739.967 921.594 741.435 921.594C742.604 921.594 743.351 920.917 743.579 919.915L743.588 919.845H745.416L745.408 919.906C745.205 921.761 743.658 923.185 741.435 923.185ZM746.581 923V913.754H748.479V915.336H748.523C748.822 914.255 749.596 913.578 750.65 913.578C750.923 913.578 751.16 913.622 751.31 913.648V915.415C751.16 915.354 750.826 915.31 750.457 915.31C749.235 915.31 748.479 916.109 748.479 917.489V923H746.581ZM755.876 923.185C753.221 923.185 751.49 921.348 751.49 918.377V918.359C751.49 915.406 753.239 913.578 755.867 913.578C758.504 913.578 760.261 915.397 760.261 918.359V918.377C760.261 921.356 758.521 923.185 755.876 923.185ZM755.884 921.594C757.37 921.594 758.319 920.416 758.319 918.377V918.359C758.319 916.338 757.352 915.169 755.867 915.169C754.408 915.169 753.432 916.338 753.432 918.359V918.377C753.432 920.425 754.399 921.594 755.884 921.594ZM761.619 923V910.317H763.518V923H761.619ZM765.359 923V910.317H767.258V923H765.359ZM775.959 923.185C773.604 923.185 772.092 921.321 772.092 918.377V918.368C772.092 915.424 773.621 913.578 775.942 913.578C777.251 913.578 778.306 914.237 778.86 915.327H778.895V910.317H780.802V923H778.895V921.436H778.86C778.306 922.517 777.286 923.185 775.959 923.185ZM776.46 921.55C777.893 921.55 778.904 920.302 778.904 918.377V918.368C778.904 916.452 777.884 915.204 776.46 915.204C774.966 915.204 774.035 916.417 774.035 918.368V918.377C774.035 920.346 774.957 921.55 776.46 921.55ZM786.546 923.185C783.892 923.185 782.16 921.348 782.16 918.377V918.359C782.16 915.406 783.909 913.578 786.537 913.578C789.174 913.578 790.932 915.397 790.932 918.359V918.377C790.932 921.356 789.191 923.185 786.546 923.185ZM786.555 921.594C788.04 921.594 788.989 920.416 788.989 918.377V918.359C788.989 916.338 788.023 915.169 786.537 915.169C785.078 915.169 784.103 916.338 784.103 918.359V918.377C784.103 920.425 785.069 921.594 786.555 921.594ZM794.004 923L791.464 913.754H793.362L795.05 921.031H795.085L797.009 913.754H798.838L800.771 921.031H800.815L802.503 913.754H804.384L801.852 923H799.875L797.932 916.074H797.888L795.964 923H794.004ZM805.364 923V913.754H807.262V915.151H807.306C807.789 914.211 808.739 913.578 810.136 913.578C812.166 913.578 813.335 914.888 813.335 917.015V923H811.428V917.375C811.428 915.986 810.778 915.204 809.459 915.204C808.123 915.204 807.262 916.171 807.262 917.612V923H805.364Z" fill="white"/>
</g>
<defs>
<filter id="filter0_f_2_4183" x="-109.195" y="-4.33434" width="1998.7" height="1209.07" filterUnits="userSpaceOnUse" color-interpolation-filters="sRGB">
<feFlood flood-opacity="0" result="BackgroundImageFix"/>
<feBlend mode="normal" in="SourceGraphic" in2="BackgroundImageFix" result="shape"/>
<feGaussianBlur stdDeviation="82.9604" result="effect1_foregroundBlur_2_4183"/>
</filter>
<filter id="filter1_f_2_4183" x="-87.2106" y="178.674" width="1998.7" height="1209.07" filterUnits="userSpaceOnUse" color-interpolation-filters="sRGB">
<feFlood flood-opacity="0" result="BackgroundImageFix"/>
<feBlend mode="normal" in="SourceGraphic" in2="BackgroundImageFix" result="shape"/>
<feGaussianBlur stdDeviation="82.9604" result="effect1_foregroundBlur_2_4183"/>
</filter>
<filter id="filter2_f_2_4183" x="18.32" y="332.209" width="1788.43" height="1098.4" filterUnits="userSpaceOnUse" color-interpolation-filters="sRGB">
<feFlood flood-opacity="0" result="BackgroundImageFix"/>
<feBlend mode="normal" in="SourceGraphic" in2="BackgroundImageFix" result="shape"/>
<feGaussianBlur stdDeviation="82.9604" result="effect1_foregroundBlur_2_4183"/>
</filter>
<filter id="filter3_f_2_4183" x="-92.0126" y="655.106" width="1250.57" height="820.408" filterUnits="userSpaceOnUse" color-interpolation-filters="sRGB">
<feFlood flood-opacity="0" result="BackgroundImageFix"/>
<feBlend mode="normal" in="SourceGraphic" in2="BackgroundImageFix" result="shape"/>
<feGaussianBlur stdDeviation="82.9604" result="effect1_foregroundBlur_2_4183"/>
</filter>
<filter id="filter4_f_2_4183" x="68.2711" y="309.952" width="1714.03" height="1077.79" filterUnits="userSpaceOnUse" color-interpolation-filters="sRGB">
<feFlood flood-opacity="0" result="BackgroundImageFix"/>
<feBlend mode="normal" in="SourceGraphic" in2="BackgroundImageFix" result="shape"/>
<feGaussianBlur stdDeviation="82.9604" result="effect1_foregroundBlur_2_4183"/>
</filter>
<linearGradient id="paint0_linear_2_4183" x1="274.884" y1="1244.57" x2="509.191" y2="1313.09" gradientUnits="userSpaceOnUse">
<stop stop-color="#0082FF"/>
<stop offset="1" stop-color="#0076BF"/>
</linearGradient>
<clipPath id="clip0_2_4183">
<rect width="1540" height="968" fill="white"/>
</clipPath>
</defs>
</svg>
